<mxfile host="app.diagrams.net" agent="Mozilla/5.0 (Macintosh; Intel Mac OS X 10_15_7) AppleWebKit/605.1.15 (KHTML, like Gecko) Version/17.3.1 Safari/605.1.15" version="25.0.3">
  <diagram name="Page-1" id="eiVfjTH3touZLWz6EHQY">
    <mxGraphModel dx="1004" dy="615" grid="1" gridSize="10" guides="1" tooltips="1" connect="1" arrows="1" fold="1" page="1" pageScale="1" pageWidth="850" pageHeight="1100" math="0" shadow="0">
      <root>
        <mxCell id="0" />
        <mxCell id="1" parent="0" />
        <mxCell id="tyjR8he37Etmvqs3X0Is-15" value="Downloader" style="swimlane;whiteSpace=wrap;html=1;" parent="1" vertex="1">
          <mxGeometry x="220" y="50" width="410" height="390" as="geometry" />
        </mxCell>
        <mxCell id="tyjR8he37Etmvqs3X0Is-65" style="edgeStyle=orthogonalEdgeStyle;rounded=0;orthogonalLoop=1;jettySize=auto;html=1;exitX=0.5;exitY=1;exitDx=0;exitDy=0;" parent="tyjR8he37Etmvqs3X0Is-15" source="tyjR8he37Etmvqs3X0Is-20" target="tyjR8he37Etmvqs3X0Is-22" edge="1">
          <mxGeometry relative="1" as="geometry" />
        </mxCell>
        <mxCell id="tyjR8he37Etmvqs3X0Is-67" style="edgeStyle=orthogonalEdgeStyle;rounded=0;orthogonalLoop=1;jettySize=auto;html=1;" parent="tyjR8he37Etmvqs3X0Is-15" source="tyjR8he37Etmvqs3X0Is-20" target="tyjR8he37Etmvqs3X0Is-23" edge="1">
          <mxGeometry relative="1" as="geometry" />
        </mxCell>
        <mxCell id="tyjR8he37Etmvqs3X0Is-20" value="Downloader&lt;div&gt;controller&lt;/div&gt;" style="rounded=0;whiteSpace=wrap;html=1;" parent="tyjR8he37Etmvqs3X0Is-15" vertex="1">
          <mxGeometry x="145" y="50" width="120" height="60" as="geometry" />
        </mxCell>
        <mxCell id="tyjR8he37Etmvqs3X0Is-22" value="Kaggle&lt;div&gt;handler&lt;/div&gt;" style="rounded=0;whiteSpace=wrap;html=1;" parent="tyjR8he37Etmvqs3X0Is-15" vertex="1">
          <mxGeometry x="25" y="150" width="120" height="60" as="geometry" />
        </mxCell>
        <mxCell id="tyjR8he37Etmvqs3X0Is-23" value="Hugging Face&lt;div&gt;handler&lt;/div&gt;" style="rounded=0;whiteSpace=wrap;html=1;" parent="tyjR8he37Etmvqs3X0Is-15" vertex="1">
          <mxGeometry x="265" y="150" width="120" height="60" as="geometry" />
        </mxCell>
        <mxCell id="1PDGVueZGX8up2TWYDjh-1" value="" style="swimlane;startSize=0;" parent="1" vertex="1">
          <mxGeometry x="170" y="20" width="670" height="440" as="geometry" />
        </mxCell>
        <mxCell id="_zNspYdnz-5iosAFabzK-1" value="Downloader&lt;div&gt;configuration&lt;/div&gt;" style="shape=parallelogram;perimeter=parallelogramPerimeter;whiteSpace=wrap;html=1;fixedSize=1;" vertex="1" parent="1PDGVueZGX8up2TWYDjh-1">
          <mxGeometry x="510" y="80" width="120" height="60" as="geometry" />
        </mxCell>
        <mxCell id="_zNspYdnz-5iosAFabzK-10" style="edgeStyle=orthogonalEdgeStyle;rounded=0;orthogonalLoop=1;jettySize=auto;html=1;entryX=0;entryY=0.5;entryDx=0;entryDy=0;" edge="1" parent="1PDGVueZGX8up2TWYDjh-1" source="_zNspYdnz-5iosAFabzK-3" target="tyjR8he37Etmvqs3X0Is-34">
          <mxGeometry relative="1" as="geometry">
            <Array as="points">
              <mxPoint x="180" y="390" />
            </Array>
          </mxGeometry>
        </mxCell>
        <mxCell id="_zNspYdnz-5iosAFabzK-3" value="Models" style="shape=parallelogram;perimeter=parallelogramPerimeter;whiteSpace=wrap;html=1;fixedSize=1;" vertex="1" parent="1PDGVueZGX8up2TWYDjh-1">
          <mxGeometry x="120" y="310" width="120" height="60" as="geometry" />
        </mxCell>
        <mxCell id="_zNspYdnz-5iosAFabzK-11" style="edgeStyle=orthogonalEdgeStyle;rounded=0;orthogonalLoop=1;jettySize=auto;html=1;entryX=0;entryY=0.5;entryDx=0;entryDy=0;" edge="1" parent="1PDGVueZGX8up2TWYDjh-1" source="_zNspYdnz-5iosAFabzK-4" target="tyjR8he37Etmvqs3X0Is-34">
          <mxGeometry relative="1" as="geometry">
            <Array as="points">
              <mxPoint x="330" y="390" />
            </Array>
          </mxGeometry>
        </mxCell>
        <mxCell id="_zNspYdnz-5iosAFabzK-4" value="Datasets" style="shape=parallelogram;perimeter=parallelogramPerimeter;whiteSpace=wrap;html=1;fixedSize=1;" vertex="1" parent="1PDGVueZGX8up2TWYDjh-1">
          <mxGeometry x="270" y="310" width="120" height="60" as="geometry" />
        </mxCell>
        <mxCell id="tyjR8he37Etmvqs3X0Is-34" value="Model Evaluator" style="rounded=0;whiteSpace=wrap;html=1;" parent="1PDGVueZGX8up2TWYDjh-1" vertex="1">
          <mxGeometry x="520" y="360" width="120" height="60" as="geometry" />
        </mxCell>
        <mxCell id="_zNspYdnz-5iosAFabzK-2" style="edgeStyle=orthogonalEdgeStyle;rounded=0;orthogonalLoop=1;jettySize=auto;html=1;" edge="1" parent="1" source="_zNspYdnz-5iosAFabzK-1" target="tyjR8he37Etmvqs3X0Is-20">
          <mxGeometry relative="1" as="geometry" />
        </mxCell>
        <mxCell id="_zNspYdnz-5iosAFabzK-7" style="edgeStyle=orthogonalEdgeStyle;rounded=0;orthogonalLoop=1;jettySize=auto;html=1;" edge="1" parent="1" source="tyjR8he37Etmvqs3X0Is-22" target="_zNspYdnz-5iosAFabzK-3">
          <mxGeometry relative="1" as="geometry">
            <Array as="points">
              <mxPoint x="305" y="300" />
              <mxPoint x="350" y="300" />
            </Array>
          </mxGeometry>
        </mxCell>
        <mxCell id="_zNspYdnz-5iosAFabzK-8" style="edgeStyle=orthogonalEdgeStyle;rounded=0;orthogonalLoop=1;jettySize=auto;html=1;entryX=0.5;entryY=0;entryDx=0;entryDy=0;" edge="1" parent="1" source="tyjR8he37Etmvqs3X0Is-23" target="_zNspYdnz-5iosAFabzK-3">
          <mxGeometry relative="1" as="geometry">
            <Array as="points">
              <mxPoint x="545" y="300" />
              <mxPoint x="350" y="300" />
            </Array>
          </mxGeometry>
        </mxCell>
        <mxCell id="_zNspYdnz-5iosAFabzK-9" style="edgeStyle=orthogonalEdgeStyle;rounded=0;orthogonalLoop=1;jettySize=auto;html=1;" edge="1" parent="1" source="tyjR8he37Etmvqs3X0Is-22" target="_zNspYdnz-5iosAFabzK-4">
          <mxGeometry relative="1" as="geometry">
            <Array as="points">
              <mxPoint x="305" y="300" />
              <mxPoint x="500" y="300" />
            </Array>
          </mxGeometry>
        </mxCell>
      </root>
    </mxGraphModel>
  </diagram>
</mxfile>
